<svg id="Layer_1" data-name="Layer 1" xmlns="http://www.w3.org/2000/svg" viewBox="0 0 90.72 55.4"><defs><style>.cls-1,.cls-2,.cls-3{fill:#0097a7;}.cls-2,.cls-3{stroke:#0097a7;stroke-width:1.22px;}.cls-2{stroke-miterlimit:10;}.cls-3{stroke-linecap:round;stroke-linejoin:round;}</style></defs><title>Untitled-1</title><circle class="cls-1" cx="19.04" cy="3.55" r="3.55"/><circle class="cls-1" cx="3.55" cy="23.73" r="3.55"/><circle class="cls-1" cx="87.17" cy="23.73" r="3.55"/><circle class="cls-1" cx="73.3" cy="3.55" r="3.55"/><circle class="cls-1" cx="46.17" cy="3.55" r="3.55"/><circle class="cls-1" cx="28.31" cy="23.73" r="3.55"/><circle class="cls-1" cx="63.32" cy="23.73" r="3.55"/><line class="cls-2" x1="19.04" y1="3.55" x2="73.3" y2="3.55"/><line class="cls-2" x1="73.3" y1="3.55" x2="87.17" y2="23.79"/><line class="cls-3" x1="46" y1="54.58" x2="87.17" y2="23.79"/><line class="cls-3" x1="3.55" y1="23.79" x2="46" y2="54.58"/><line class="cls-2" x1="19.04" y1="3.55" x2="3.55" y2="23.79"/><line class="cls-2" x1="87.17" y1="23.79" x2="3.55" y2="23.79"/><line class="cls-3" x1="19.04" y1="3.55" x2="46" y2="54.58"/><line class="cls-3" x1="73.3" y1="3.55" x2="46" y2="54.58"/><line class="cls-2" x1="46.17" y1="3.55" x2="63.32" y2="23.79"/><line class="cls-2" x1="28.31" y1="23.79" x2="46.17" y2="3.55"/></svg>